# xmcd
#
# Track frame offsets: 
#        150
#        22162
#        51830
#        73995
#        96677
#        110540
#        129447
#        146195
#        164035
#        180567
#        200307
#        219502
#        237137
#        257160
#        275702
#        290975
#        309270
#
# Disc length: 4423 seconds
#
# Revision: 5
# Processed by: cddbd v1.5.2PL0 Copyright (c) Steve Scherf et al.
# Submitted via: ExactAudioCopyFreeDBPlugin 1.0
#
DISCID=1b114511
DTITLE=叶树茵 - 数叶集
DYEAR=2002
DGENRE=Folk
TTITLE0=伤心无话
TTITLE1=哭泣是没有用的
TTITLE2=下雨天
TTITLE3=去听美人鱼唱歌
TTITLE4=数羊
TTITLE5=月亮永远见不着太阳
TTITLE6=子夜歌
TTITLE7=苦海深深
TTITLE8=非常属于我
TTITLE9=情歌
TTITLE10=相簿
TTITLE11=爱是甜的
TTITLE12=ALAN会喜欢我这么做
TTITLE13=秋诗篇篇
TTITLE14=摇篮曲
TTITLE15=决定
TTITLE16=27岁的地图
EXTD=YEAR: 2002
EXTT0=
EXTT1=
EXTT2=
EXTT3=
EXTT4=
EXTT5=
EXTT6=
EXTT7=
EXTT8=
EXTT9=
EXTT10=
EXTT11=
EXTT12=
EXTT13=
EXTT14=
EXTT15=
EXTT16=
PLAYORDER=
